<?xml version="1.0" encoding="UTF-8" standalone="no"?>
<!-- Created with Inkscape (http://www.inkscape.org/) -->

<svg
   xmlns:dc="http://purl.org/dc/elements/1.1/"
   xmlns:cc="http://creativecommons.org/ns#"
   xmlns:rdf="http://www.w3.org/1999/02/22-rdf-syntax-ns#"
   xmlns:svg="http://www.w3.org/2000/svg"
   xmlns="http://www.w3.org/2000/svg"
   xmlns:sodipodi="http://sodipodi.sourceforge.net/DTD/sodipodi-0.dtd"
   xmlns:inkscape="http://www.inkscape.org/namespaces/inkscape"
   inkscape:version="0.91 r13725"
   version="1.1"
   id="svg2"
   viewBox="0 0 1062.9921 1612.2046"
   height="45.5cm"
   width="30cm"
   sodipodi:docname="Kotelo.svg">
  <sodipodi:namedview
     inkscape:window-maximized="1"
     inkscape:window-y="-8"
     inkscape:window-x="-8"
     inkscape:window-height="705"
     inkscape:window-width="1366"
     units="cm"
     showgrid="false"
     inkscape:current-layer="svg2"
     inkscape:document-units="cm"
     inkscape:cy="1084.4649"
     inkscape:cx="577.52138"
     inkscape:zoom="0.49497475"
     inkscape:pageshadow="2"
     inkscape:pageopacity="0.0"
     borderopacity="1.0"
     bordercolor="#666666"
     pagecolor="#ffffff"
     id="base" />
  <defs
     id="defs4" />
  <metadata
     id="metadata7">
    <rdf:RDF>
      <cc:Work
         rdf:about="">
        <dc:format>image/svg+xml</dc:format>
        <dc:type
           rdf:resource="http://purl.org/dc/dcmitype/StillImage" />
        <dc:title></dc:title>
      </cc:Work>
    </rdf:RDF>
  </metadata>
  <g
     transform="translate(0,559.84251)"
     id="layer1"
     inkscape:groupmode="layer"
     inkscape:label="Taso 1" />
  <g
     id="g3424"
     inkscape:groupmode="layer"
     inkscape:label="newlayer" />
  <path
     id="path3426"
     d="m 332.95612,711.13438 23.60538,0.0446 0,10.62993 12.88189,0 0,-10.62993 10.34646,0 0,10.62993 12.88189,0 0,-10.62993 10.34646,0 0,10.62993 12.88189,0 0,-10.62993 10.34645,0 0,10.62993 12.88189,0 0,-10.62993 10.34646,0 0,10.62993 12.88189,0 0,-10.62993 10.34646,0 0,10.62993 12.88189,0 0,-10.62993 10.34645,0 0,10.62993 12.88189,0 0,-10.62993 23.56075,0"
     style="fill:none;stroke:#000000"
     inkscape:label="part"
     inkscape:connector-curvature="0"
     sodipodi:nodetypes="cccccccccccccccccccccccccccccc" />
  <path
     id="path3428"
     d="m 531.90009,710.69288 0,11.51946 -10.62993,0 0,10.91338 10.62993,0 0,10.89158 -10.62993,0 0,10.91339 10.62993,0 0,10.89158 -10.62993,0 0,10.91339 10.62993,0 0,10.89158 -10.62993,0 0,10.91338 10.62993,0 0,10.89158 -10.62993,0 0,10.91339 10.62993,0 0,10.89158 -10.62993,0 0,10.91339 10.62993,0 0,10.89158 -10.62993,0 0,10.91338 10.62993,0 0,10.89158 -10.62993,0 0,10.91339 10.62993,0 0,10.89158 -10.62993,0 0,10.91339 10.62993,0 0,10.89158 -10.62993,0 0,10.91338 10.62993,0 0,10.89158 -10.62993,0 0,10.91339 10.62993,0 0,10.89158 -10.62993,0 0,10.91338 10.62993,0 0.0893,11.47483"
     style="fill:none;stroke:#000000"
     inkscape:label="part"
     inkscape:connector-curvature="0"
     sodipodi:nodetypes="cccccccccccccccccccccccccccccccccccccccccccccccccc" />
  <path
     id="path3430"
     d="m 532.28493,984.10296 -23.47146,-0.0893 0,-10.62992 -12.88189,0 0,10.62992 -10.34645,0 0,-10.62992 -12.88189,0 0,10.62992 -10.34646,0 0,-10.62992 -12.88189,0 0,10.62992 -10.34646,0 0,-10.62992 -12.88189,0 0,10.62992 -10.34645,0 0,-10.62992 -12.88189,0 0,10.62992 -10.34646,0 0,-10.62992 -12.88189,0 0,10.62992 -10.34646,0 0,-10.62992 -12.88189,0 0,10.62992 -23.56074,0"
     style="fill:none;stroke:#000000"
     inkscape:label="part"
     inkscape:connector-curvature="0"
     sodipodi:nodetypes="cccccccccccccccccccccccccccccc" />
  <path
     id="path3432"
     d="m 333.56418,984.36589 -0.0893,-11.38554 10.62992,0 0,-10.91338 -10.62992,0 0,-10.89158 10.62992,0 0,-10.91339 -10.62992,0 0,-10.89158 10.62992,0 0,-10.91338 -10.62992,0 0,-10.89158 10.62992,0 0,-10.91339 -10.62992,0 0,-10.89158 10.62992,0 0,-10.91339 -10.62992,0 0,-10.89158 10.62992,0 0,-10.91338 -10.62992,0 0,-10.89158 10.62992,0 0,-10.91339 -10.62992,0 0,-10.89158 10.62992,0 0,-10.91339 -10.62992,0 0,-10.89158 10.62992,0 0,-10.91338 -10.62992,0 0,-10.89158 10.62992,0 0,-10.91339 -10.62992,0 0,-10.89158 10.62992,0 0,-10.91339 -10.62992,0 0,-10.89158 10.62992,0 0,-10.91338 -4.68517,0 -5.94475,0 -0.0446,-11.51946"
     style="fill:none;stroke:#000000"
     inkscape:label="part"
     inkscape:connector-curvature="0"
     sodipodi:nodetypes="ccccccccccccccccccccccccccccccccccccccccccccccccccc" />
  <path
     id="path3434"
     d="m 64.183553,303.69871 0.686855,0 0,-10.62992 10.346458,0 0,10.62992 11.458509,0 0,-10.62992 10.346457,0 0,10.62992 11.458508,0 0,-10.62992 10.34646,0 0,10.62992 11.45851,0 0,-10.62992 10.34646,0 0,10.62992 11.4585,0 0,-10.62992 10.34646,0 0,10.62992 11.45851,0 0,-10.62992 10.34646,0 0,10.62992 11.45851,0 0,-10.62992 10.34645,0 0,10.62992 11.45851,0 0,-10.62992 10.34646,0 0,10.62992 11.45851,0 0,-10.62992 10.34646,0 0,10.62992 11.45851,0 0,-10.62992 10.34645,0 0,10.62992 11.45851,0 0,-10.62992 10.34646,0 0,10.62992 11.45851,0 0,-10.62992 10.34646,0 0,10.62992 0.68685,0"
     style="fill:none;stroke:#000000"
     inkscape:label="part"
     inkscape:connector-curvature="0" />
  <path
     id="path3436"
     d="m 315.75835,303.69871 0,1.07418 10.62992,0 0,10.34646 -10.62992,0 0,11.84583 10.62992,0 0,10.34646 -10.62992,0 0,11.84583 10.62992,0 0,10.34646 -10.62992,0 0,11.84583 10.62992,0 0,10.34646 -10.62992,0 0,11.84584 10.62992,0 0,10.34645 -10.62992,0 0,11.84584 10.62992,0 0,10.34646 -10.62992,0 0,11.84583 10.62992,0 0,10.34646 -10.62992,0 0,11.84583 10.62992,0 0,10.34646 -10.62992,0 0,11.84583 10.62992,0 0,10.34646 -10.62992,0 0,11.84584 10.62992,0 0,10.34645 -10.62992,0 0,11.84584 10.62992,0 0,10.34645 -10.62992,0 0,11.84584 10.62992,0 0,10.34646 -10.62992,0 0,11.84583 10.62992,0 0,10.34646 -10.62992,0 0,11.84583 10.62992,0 0,10.34646 -10.62992,0 0,11.84583 10.62992,0 0,10.34646 -10.62992,0 0,11.84584 10.62992,0 0,10.34645 -10.62992,0 0,11.84584 10.62992,0 0,10.34646 -10.62992,0 0,11.84583 10.62992,0 0,10.34646 -10.62992,0 0,1.07418"
     style="fill:none;stroke:#000000"
     inkscape:label="part"
     inkscape:connector-curvature="0" />
  <path
     id="path3438"
     d="m 315.75835,693.46249 -0.68685,0 0,10.62992 -10.34646,0 0,-10.62992 -11.45851,0 0,10.62992 -10.34646,0 0,-10.62992 -11.45851,0 0,10.62992 -10.34645,0 0,-10.62992 -11.45851,0 0,10.62992 -10.34646,0 0,-10.62992 -11.45851,0 0,10.62992 -10.34646,0 0,-10.62992 -11.45851,0 0,10.62992 -10.34645,0 0,-10.62992 -11.45851,0 0,10.62992 -10.34646,0 0,-10.62992 -11.45851,0 0,10.62992 -10.34646,0 0,-10.62992 -11.4585,0 0,10.62992 -10.34646,0 0,-10.62992 -11.45851,0 0,10.62992 -10.34646,0 0,-10.62992 -11.458508,0 0,10.62992 -10.346457,0 0,-10.62992 -11.458509,0 0,10.62992 -10.346458,0 0,-10.62992 -0.686855,0"
     style="fill:none;stroke:#000000"
     inkscape:label="part"
     inkscape:connector-curvature="0" />
  <path
     id="path3440"
     d="m 64.183553,693.46249 0,-1.07418 -10.629922,0 0,-10.34646 10.629922,0 0,-11.84583 -10.629922,0 0,-10.34646 10.629922,0 0,-11.84584 -10.629922,0 0,-10.34645 10.629922,0 0,-11.84584 -10.629922,0 0,-10.34646 10.629922,0 0,-11.84583 -10.629922,0 0,-10.34646 10.629922,0 0,-11.84583 -10.629922,0 0,-10.34646 10.629922,0 0,-11.84583 -10.629922,0 0,-10.34646 10.629922,0 0,-11.84584 -10.629922,0 0,-10.34645 10.629922,0 0,-11.84584 -10.629922,0 0,-10.34645 10.629922,0 0,-11.84584 -10.629922,0 0,-10.34646 10.629922,0 0,-11.84583 -10.629922,0 0,-10.34646 10.629922,0 0,-11.84583 -10.629922,0 0,-10.34646 10.629922,0 0,-11.84583 -10.629922,0 0,-10.34646 10.629922,0 0,-11.84584 -10.629922,0 0,-10.34645 10.629922,0 0,-11.84584 -10.629922,0 0,-10.34646 10.629922,0 0,-11.84583 -10.629922,0 0,-10.34646 10.629922,0 0,-11.84583 -10.629922,0 0,-10.34646 10.629922,0 0,-11.84583 -10.629922,0 0,-10.34646 10.629922,0 0,-1.07418"
     style="fill:none;stroke:#000000"
     inkscape:label="part"
     inkscape:connector-curvature="0" />
  <path
     id="path3442"
     d="m 344.35322,303.69871 12.49175,0 0,-10.62992 12.31496,0 0,10.62992 10.91338,0 0,-10.62992 12.31496,0 0,10.62992 10.91339,0 0,-10.62992 12.31496,0 0,10.62992 10.91339,0 0,-10.62992 12.31496,0 0,10.62992 10.91338,0 0,-10.62992 12.31496,0 0,10.62992 10.91339,0 0,-10.62992 12.31496,0 0,10.62992 10.91339,0 0,-10.62992 12.31496,0 0,10.62992 13.14552,0.0446"
     style="fill:none;stroke:#000000"
     inkscape:label="part"
     inkscape:connector-curvature="0"
     sodipodi:nodetypes="cccccccccccccccccccccccccccccc" />
  <path
     id="path3444"
     d="m 521.27016,303.32871 0,12.0741 10.62993,0 0,11.27891 -10.62993,0 0,10.91338 10.62993,0 0,11.27891 -10.62993,0 0,10.91338 10.62993,0 0,11.27891 -10.62993,0 0,10.91339 10.62993,0 0,11.2789 -10.62993,0 0,10.91339 10.62993,0 0,11.2789 -10.62993,0 0,10.91339 10.62993,0 0,11.27891 -10.62993,0 0,10.91338 10.62993,0 0,11.27891 -10.62993,0 0,10.91338 10.62993,0 0,11.27891 -10.62993,0 0,10.91339 10.62993,0 0,11.2789 -10.62993,0 0,10.91339 10.62993,0 0,11.2789 -10.62993,0 0,10.91339 10.62993,0 0,11.2789 -10.62993,0 0,10.91339 10.62993,0 0,11.27891 -10.62993,0 0,10.91338 10.62993,0 0,11.27891 -10.62993,0 0,10.91338 10.62993,0 0,11.27891 -10.62993,0 0,10.91339 10.62993,0 0,11.2789 -10.62993,0 0,10.91339 10.62993,0 0,11.2789 -10.62993,0 0,10.91339 10.62993,0 0,11.27891 -10.62993,0 -0.0335,12.25267"
     style="fill:none;stroke:#000000"
     inkscape:label="part"
     inkscape:connector-curvature="0"
     sodipodi:nodetypes="cccccccccccccccccccccccccccccccccccccccccccccccccccccccccccccccccccccc" />
  <path
     id="path3446"
     d="m 521.75366,693.47365 -13.22365,-0.0112 0,10.62992 -12.31496,0 0,-10.62992 -10.91339,0 0,10.62992 -12.31496,0 0,-10.62992 -10.91339,0 0,10.62992 -12.31496,0 0,-10.62992 -10.91338,0 0,10.62992 -12.31496,0 0,-10.62992 -10.91339,0 0,10.62992 -12.31496,0 0,-10.62992 -10.91339,0 0,10.62992 -12.31496,0 0,-10.62992 -10.91338,0 0,10.62992 -12.31496,0 0,-10.62992 -13.24148,-0.0158"
     style="fill:none;stroke:#000000"
     inkscape:label="part"
     inkscape:connector-curvature="0"
     sodipodi:nodetypes="cccccccccccccccccccccccccccccc" />
  <path
     id="path3448"
     d="m 344.10481,693.94409 0,-12.1857 -10.62992,0 0,-11.27891 10.62992,0 0,-10.91339 -10.62992,0 0,-11.2789 10.62992,0 0,-10.91339 -10.62992,0 0,-11.2789 10.62992,0 0,-10.91339 -10.62992,0 0,-11.27891 10.62992,0 0,-10.91338 -10.62992,0 0,-11.27891 10.62992,0 0,-10.91338 -10.62992,0 0,-11.27891 10.62992,0 0,-10.91339 -10.62992,0 0,-11.2789 10.62992,0 0,-10.91339 -10.62992,0 0,-11.2789 10.62992,0 0,-10.91339 -10.62992,0 0,-11.2789 10.62992,0 0,-10.91339 -10.62992,0 0,-11.27891 10.62992,0 0,-10.91338 -10.62992,0 0,-11.27891 10.62992,0 0,-10.91338 -10.62992,0 0,-11.27891 10.62992,0 0,-10.91339 -10.62992,0 0,-11.2789 10.62992,0 0,-10.91339 -10.62992,0 0,-11.2789 10.62992,0 0,-10.91339 -10.62992,0 0,-11.27891 10.62992,0 0,-10.91338 -10.62992,0 0,-11.27891 10.62992,0 0,-10.91338 -10.62992,0 0,-11.27891 10.62992,0 -0.0947,-12.20765"
     style="fill:none;stroke:#000000"
     inkscape:label="part"
     inkscape:connector-curvature="0"
     sodipodi:nodetypes="cccccccccccccccccccccccccccccccccccccccccccccccccccccccccccccccccccccc" />
  <path
     id="path3450"
     d="m 549.61662,303.69871 0.68686,0 0,-10.62992 10.34645,0 0,10.62992 11.45851,0 0,-10.62992 10.34646,0 0,10.62992 11.45851,0 0,-10.62992 10.34646,0 0,10.62992 11.45851,0 0,-10.62992 10.34645,0 0,10.62992 11.45851,0 0,-10.62992 10.34646,0 0,10.62992 11.45851,0 0,-10.62992 10.34646,0 0,10.62992 11.45851,0 0,-10.62992 10.34645,0 0,10.62992 11.45851,0 0,-10.62992 10.34646,0 0,10.62992 11.45851,0 0,-10.62992 10.34646,0 0,10.62992 11.45851,0 0,-10.62992 10.34645,0 0,10.62992 11.45851,0 0,-10.62992 10.34646,0 0,10.62992 11.45851,0 0,-10.62992 10.34646,0 0,10.62992 0.68685,0"
     style="fill:none;stroke:#000000"
     inkscape:label="part"
     inkscape:connector-curvature="0" />
  <path
     id="path3452"
     d="m 801.19142,303.69871 0,1.07418 10.62992,0 0,10.34646 -10.62992,0 0,11.84583 10.62992,0 0,10.34646 -10.62992,0 0,11.84583 10.62992,0 0,10.34646 -10.62992,0 0,11.84583 10.62992,0 0,10.34646 -10.62992,0 0,11.84584 10.62992,0 0,10.34645 -10.62992,0 0,11.84584 10.62992,0 0,10.34646 -10.62992,0 0,11.84583 10.62992,0 0,10.34646 -10.62992,0 0,11.84583 10.62992,0 0,10.34646 -10.62992,0 0,11.84583 10.62992,0 0,10.34646 -10.62992,0 0,11.84584 10.62992,0 0,10.34645 -10.62992,0 0,11.84584 10.62992,0 0,10.34645 -10.62992,0 0,11.84584 10.62992,0 0,10.34646 -10.62992,0 0,11.84583 10.62992,0 0,10.34646 -10.62992,0 0,11.84583 10.62992,0 0,10.34646 -10.62992,0 0,11.84583 10.62992,0 0,10.34646 -10.62992,0 0,11.84584 10.62992,0 0,10.34645 -10.62992,0 0,11.84584 10.62992,0 0,10.34646 -10.62992,0 0,11.84583 10.62992,0 0,10.34646 -10.62992,0 0,1.07418"
     style="fill:none;stroke:#000000"
     inkscape:label="part"
     inkscape:connector-curvature="0" />
  <path
     id="path3454"
     d="m 801.19142,693.46249 -0.68685,0 0,10.62992 -10.34646,0 0,-10.62992 -11.45851,0 0,10.62992 -10.34646,0 0,-10.62992 -11.45851,0 0,10.62992 -10.34645,0 0,-10.62992 -11.45851,0 0,10.62992 -10.34646,0 0,-10.62992 -11.45851,0 0,10.62992 -10.34646,0 0,-10.62992 -11.45851,0 0,10.62992 -10.34645,0 0,-10.62992 -11.45851,0 0,10.62992 -10.34646,0 0,-10.62992 -11.45851,0 0,10.62992 -10.34646,0 0,-10.62992 -11.45851,0 0,10.62992 -10.34645,0 0,-10.62992 -11.45851,0 0,10.62992 -10.34646,0 0,-10.62992 -11.45851,0 0,10.62992 -10.34646,0 0,-10.62992 -11.45851,0 0,10.62992 -10.34645,0 0,-10.62992 -0.68686,0"
     style="fill:none;stroke:#000000"
     inkscape:label="part"
     inkscape:connector-curvature="0" />
  <path
     id="path3456"
     d="m 549.61662,693.46249 0,-1.07418 -10.62992,0 0,-10.34646 10.62992,0 0,-11.84583 -10.62992,0 0,-10.34646 10.62992,0 0,-11.84584 -10.62992,0 0,-10.34645 10.62992,0 0,-11.84584 -10.62992,0 0,-10.34646 10.62992,0 0,-11.84583 -10.62992,0 0,-10.34646 10.62992,0 0,-11.84583 -10.62992,0 0,-10.34646 10.62992,0 0,-11.84583 -10.62992,0 0,-10.34646 10.62992,0 0,-11.84584 -10.62992,0 0,-10.34645 10.62992,0 0,-11.84584 -10.62992,0 0,-10.34645 10.62992,0 0,-11.84584 -10.62992,0 0,-10.34646 10.62992,0 0,-11.84583 -10.62992,0 0,-10.34646 10.62992,0 0,-11.84583 -10.62992,0 0,-10.34646 10.62992,0 0,-11.84583 -10.62992,0 0,-10.34646 10.62992,0 0,-11.84584 -10.62992,0 0,-10.34645 10.62992,0 0,-11.84584 -10.62992,0 0,-10.34646 10.62992,0 0,-11.84583 -10.62992,0 0,-10.34646 10.62992,0 0,-11.84583 -10.62992,0 0,-10.34646 10.62992,0 0,-11.84583 -10.62992,0 0,-10.34646 10.62992,0 0,-1.07418"
     style="fill:none;stroke:#000000"
     inkscape:label="part"
     inkscape:connector-curvature="0" />
  <path
     id="path3458"
     d="m 829.08786,303.74335 13.19018,-0.0446 0,-10.62992 12.31496,0 0,10.62992 10.91338,0 0,-10.62992 12.31496,0 0,10.62992 10.91339,0 0,-10.62992 12.31496,0 0,10.62992 10.91339,0 0,-10.62992 12.31496,0 0,10.62992 10.91338,0 0,-10.62992 12.31496,0 0,10.62992 10.91339,0 0,-10.62992 12.31496,0 0,10.62992 10.91339,0 0,-10.62992 12.31496,0 0,10.62992 13.32412,0.0893"
     style="fill:none;stroke:#000000"
     inkscape:label="part"
     inkscape:connector-curvature="0"
     sodipodi:nodetypes="cccccccccccccccccccccccccccccc" />
  <path
     id="path3460"
     d="m 1006.7925,303.28406 -0.089,12.11875 10.63,0 0,11.27891 -10.63,0 0,10.91338 10.63,0 0,11.27891 -10.63,0 0,10.91338 10.63,0 0,11.27891 -10.63,0 0,10.91339 10.63,0 0,11.2789 -10.63,0 0,10.91339 10.63,0 0,11.2789 -10.63,0 0,10.91339 10.63,0 0,11.27891 -10.63,0 0,10.91338 10.63,0 0,11.27891 -10.63,0 0,10.91338 10.63,0 0,11.27891 -10.63,0 0,10.91339 10.63,0 0,11.2789 -10.63,0 0,10.91339 10.63,0 0,11.2789 -10.63,0 0,10.91339 10.63,0 0,11.2789 -10.63,0 0,10.91339 10.63,0 0,11.27891 -10.63,0 0,10.91338 10.63,0 0,11.27891 -10.63,0 0,10.91338 10.63,0 0,11.27891 -10.63,0 0,10.91339 10.63,0 0,11.2789 -10.63,0 0,10.91339 10.63,0 0,11.2789 -10.63,0 0,10.91339 10.63,0 0,11.27891 -10.63,0 0.063,12.23921"
     style="fill:none;stroke:#000000"
     inkscape:label="part"
     inkscape:connector-curvature="0"
     sodipodi:nodetypes="cccccccccccccccccccccccccccccccccccccccccccccccccccccccccccccccccccccc" />
  <path
     id="path3462"
     d="m 1006.8968,693.39936 -12.93372,0.0631 0,10.62992 -12.31496,0 0,-10.62992 -10.91339,0 0,10.62992 -12.31496,0 0,-10.62992 -10.91339,0 0,10.62992 -12.31496,0 0,-10.62992 -10.91338,0 0,10.62992 -12.31496,0 0,-10.62992 -10.91339,0 0,10.62992 -12.31496,0 0,-10.62992 -10.91339,0 0,10.62992 -12.31496,0 0,-10.62992 -10.91338,0 0,10.62992 -12.31496,0 0,-10.62992 -13.14553,0"
     style="fill:none;stroke:#000000"
     inkscape:label="part"
     inkscape:connector-curvature="0"
     sodipodi:nodetypes="cccccccccccccccccccccccccccccc" />
  <path
     id="path3464"
     d="m 829.62717,693.92177 -0.0893,-12.16338 -10.62992,0 0,-11.27891 10.62992,0 0,-10.91339 -10.62992,0 0,-11.2789 10.62992,0 0,-10.91339 -10.62992,0 0,-11.2789 10.62992,0 0,-10.91339 -10.62992,0 0,-11.27891 10.62992,0 0,-10.91338 -10.62992,0 0,-11.27891 10.62992,0 0,-10.91338 -10.62992,0 0,-11.27891 10.62992,0 0,-10.91339 -10.62992,0 0,-11.2789 10.62992,0 0,-10.91339 -10.62992,0 0,-11.2789 10.62992,0 0,-10.91339 -10.62992,0 0,-11.2789 10.62992,0 0,-10.91339 -10.62992,0 0,-11.27891 10.62992,0 0,-10.91338 -10.62992,0 0,-11.27891 10.62992,0 0,-10.91338 -10.62992,0 0,-11.27891 10.62992,0 0,-10.91339 -10.62992,0 0,-11.2789 10.62992,0 0,-10.91339 -10.62992,0 0,-11.2789 10.62992,0 0,-10.91339 -10.62992,0 0,-11.27891 10.62992,0 0,-10.91338 -10.62992,0 0,-11.27891 10.62992,0 0,-10.91338 -10.62992,0 0,-11.27891 10.62992,0 0.0893,-11.94018"
     style="fill:none;stroke:#000000"
     inkscape:label="part"
     inkscape:connector-curvature="0"
     sodipodi:nodetypes="cccccccccccccccccccccccccccccccccccccccccccccccccccccccccccccccccccccc" />
  <path
     id="path3466"
     d="m 332.91148,13.14753 23.65002,0 0,10.629921 12.88189,0 0,-10.629921 10.34646,0 0,10.629921 12.88189,0 0,-10.629921 10.34646,0 0,10.629921 12.88189,0 0,-10.629921 10.34645,0 0,10.629921 12.88189,0 0,-10.629921 10.34646,0 0,10.629921 12.88189,0 0,-10.629921 10.34646,0 0,10.629921 12.88189,0 0,-10.629921 10.34645,0 0,10.629921 12.88189,0 0,-10.629921 23.29289,-0.08929"
     style="fill:none;stroke:#000000"
     inkscape:label="part"
     inkscape:connector-curvature="0"
     sodipodi:nodetypes="cccccccccccccccccccccccccccccc" />
  <path
     id="path3468"
     d="m 531.8108,12.706022 0.0893,11.47482 -10.62993,0 0,10.913386 10.62993,0 0,10.891581 -10.62993,0 0,10.913386 10.62993,0 0,10.89158 -10.62993,0 0,10.913386 10.62993,0 0,10.891581 -10.62993,0 0,10.913388 10.62993,0 0,10.89158 -10.62993,0 0,10.91338 10.62993,0 0,10.89158 -10.62993,0 0,10.91339 10.62993,0 0,10.89158 -10.62993,0 0,10.91339 10.62993,0 0,10.89158 -10.62993,0 0,10.91338 10.62993,0 0,10.89158 -10.62993,0 0,10.91339 10.62993,0 0,10.89158 -10.62993,0 0,10.91339 10.62993,0 0,10.89158 -10.62993,0 0,10.91338 10.62993,0 0,10.89158 -10.62993,0 0,10.91339 10.62993,0 -0.0446,11.47482"
     style="fill:none;stroke:#000000"
     inkscape:label="part"
     inkscape:connector-curvature="0"
     sodipodi:nodetypes="cccccccccccccccccccccccccccccccccccccccccccccccccc" />
  <path
     id="path3470"
     d="m 532.37422,285.98217 -23.56075,0 0,-10.62992 -12.88189,0 0,10.62992 -10.34645,0 0,-10.62992 -12.88189,0 0,10.62992 -10.34646,0 0,-10.62992 -12.88189,0 0,10.62992 -10.34646,0 0,-10.62992 -12.88189,0 0,10.62992 -10.34645,0 0,-10.62992 -12.88189,0 0,10.62992 -10.34646,0 0,-10.62992 -12.88189,0 0,10.62992 -10.34646,0 0,-10.62992 -12.88189,0 0,10.62992 -23.54157,0"
     style="fill:none;stroke:#000000"
     inkscape:label="part"
     inkscape:connector-curvature="0"
     sodipodi:nodetypes="cccccccccccccccccccccccccccccc" />
  <path
     id="path3472"
     d="m 333.60116,286.46393 -0.12627,-11.51507 10.62992,0 0,-10.91339 -10.62992,0 0,-10.89158 10.62992,0 0,-10.91338 -10.62992,0 0,-10.89158 10.62992,0 0,-10.91339 -10.62992,0 0,-10.89158 10.62992,0 0,-10.91339 -10.62992,0 0,-10.89158 10.62992,0 0,-10.91338 -10.62992,0 0,-10.89158 10.62992,0 0,-10.91339 -10.62992,0 0,-10.89158 10.62992,0 0,-10.91339 -10.62992,0 0,-10.89158 10.62992,0 0,-10.91338 -10.62992,0 0,-10.89158 10.62992,0 0,-10.913388 -10.62992,0 0,-10.891581 10.62992,0 0,-10.913386 -10.62992,0 0,-10.89158 10.62992,0 0,-10.913386 -10.62992,0 0,-10.891581 10.62992,0 0,-10.913386 -10.62992,0 -0.17857,-11.385534"
     style="fill:none;stroke:#000000"
     inkscape:label="part"
     inkscape:connector-curvature="0"
     sodipodi:nodetypes="cccccccccccccccccccccccccccccccccccccccccccccccccc" />
  <rect
     style="fill:none;fill-rule:evenodd;stroke:#000000;stroke-width:0.98466378;stroke-linecap:butt;stroke-linejoin:miter;stroke-miterlimit:4;stroke-dasharray:none;stroke-opacity:1"
     id="rect3506"
     width="87.598015"
     height="250.59015"
     x="91.920151"
     y="371.71558" />
  <ellipse
     style="fill:none;stroke-width:0.99212599;stroke-miterlimit:4;stroke-dasharray:none"
     id="path4310"
     cx="244.96199"
     cy="423.2551"
     rx="11.616755"
     ry="16.162441" />
  <ellipse
     style="fill:none;stroke-width:0.99212599;stroke-miterlimit:4;stroke-dasharray:none"
     id="path4312"
     cx="241.42645"
     cy="416.18405"
     rx="18.182745"
     ry="32.324883" />
  <ellipse
     style="fill:none;fill-rule:evenodd;stroke:#000000;stroke-width:0.65922219px;stroke-linecap:butt;stroke-linejoin:miter;stroke-opacity:1"
     id="path4344"
     cx="235.74809"
     cy="564.41632"
     rx="10.65464"
     ry="10.654641" />
  <circle
     style="fill:none;fill-rule:evenodd;stroke:#000000;stroke-width:0.65922213px;stroke-linecap:butt;stroke-linejoin:miter;stroke-opacity:1"
     id="path4344-1"
     cx="235.73622"
     cy="513.18939"
     r="10.654641" />
  <rect
     style="fill:none;fill-rule:evenodd;stroke:#000000;stroke-width:0.97805369px;stroke-linecap:butt;stroke-linejoin:miter;stroke-opacity:1"
     id="rect4365"
     width="73.431396"
     height="30.911711"
     x="205.05"
     y="433.33554" />
</svg>
